<svg xmlns="http://www.w3.org/2000/svg" viewBox="0 0 512 512">
  <defs>
    <linearGradient id="bgGrad" x1="0%" y1="0%" x2="100%" y2="100%">
      <stop offset="0%" stop-color="#818cf8" />
      <stop offset="100%" stop-color="#4338ca" />
    </linearGradient>
    <filter id="shadow" x="-10%" y="-10%" width="120%" height="120%">
      <feDropShadow dx="0" dy="12" stdDeviation="15" flood-color="#000000" flood-opacity="0.15"/>
    </filter>
  </defs>

  <rect width="512" height="512" rx="115" fill="url(#bgGrad)"/>

  <path d="M150 140h190a40 40 0 0 1 40 40v190a40 40 0 0 1-40 40H150V140z" fill="#ffffff" filter="url(#shadow)" />
  
  <rect x="120" y="140" width="30" height="270" fill="#e2e8f0" />

  <path d="M290 140v130l-30-25-30 25V140h60z" fill="#f59e0b" filter="url(#shadow)" />

  <rect x="190" y="210" width="80" height="20" rx="10" fill="#cbd5e1" />
  <rect x="190" y="260" width="140" height="20" rx="10" fill="#f1f5f9" />
  <rect x="190" y="310" width="110" height="20" rx="10" fill="#f1f5f9" />

  <circle cx="135" cy="190" r="14" fill="#334155" />
  <circle cx="135" cy="275" r="14" fill="#334155" />
  <circle cx="135" cy="360" r="14" fill="#334155" />
</svg>
